<mxfile host="Electron" modified="2024-03-05T16:41:13.536Z" agent="Mozilla/5.0 (Windows NT 10.0; Win64; x64) AppleWebKit/537.36 (KHTML, like Gecko) draw.io/23.1.5 Chrome/120.0.6099.109 Electron/28.1.0 Safari/537.36" etag="ikWQs3wypptesm6vt_pe" version="23.1.5" type="device">
  <diagram name="PÃ¡gina-1" id="8ECtquWS9Tgu9oOUBuu8">
    <mxGraphModel dx="1050" dy="621" grid="1" gridSize="10" guides="1" tooltips="1" connect="1" arrows="1" fold="1" page="1" pageScale="1" pageWidth="827" pageHeight="1169" math="0" shadow="0">
      <root>
        <mxCell id="0" />
        <mxCell id="1" parent="0" />
        <mxCell id="kZJSMgrCVQplBnDcgvXw-1" value="Administrador" style="rounded=1;whiteSpace=wrap;html=1;" parent="1" vertex="1">
          <mxGeometry x="180" y="150" width="120" height="60" as="geometry" />
        </mxCell>
        <mxCell id="kZJSMgrCVQplBnDcgvXw-2" value="&lt;u&gt;Id_administrador&lt;/u&gt;" style="ellipse;whiteSpace=wrap;html=1;" parent="1" vertex="1">
          <mxGeometry x="50" y="30" width="100" height="50" as="geometry" />
        </mxCell>
        <mxCell id="kZJSMgrCVQplBnDcgvXw-4" value="Nombre_&lt;br&gt;administrador" style="ellipse;whiteSpace=wrap;html=1;" parent="1" vertex="1">
          <mxGeometry x="40" y="155" width="100" height="50" as="geometry" />
        </mxCell>
        <mxCell id="kZJSMgrCVQplBnDcgvXw-7" value="Apellido_&lt;br&gt;administrador" style="ellipse;whiteSpace=wrap;html=1;" parent="1" vertex="1">
          <mxGeometry x="50" y="280" width="100" height="50" as="geometry" />
        </mxCell>
        <mxCell id="kZJSMgrCVQplBnDcgvXw-9" value="Correo_&lt;br&gt;administrador" style="ellipse;whiteSpace=wrap;html=1;" parent="1" vertex="1">
          <mxGeometry x="190" y="280" width="100" height="50" as="geometry" />
        </mxCell>
        <mxCell id="kZJSMgrCVQplBnDcgvXw-11" value="Clave_&lt;br&gt;administrador" style="ellipse;whiteSpace=wrap;html=1;" parent="1" vertex="1">
          <mxGeometry x="190" y="30" width="100" height="50" as="geometry" />
        </mxCell>
        <mxCell id="kZJSMgrCVQplBnDcgvXw-13" value="Agrega" style="rhombus;whiteSpace=wrap;html=1;" parent="1" vertex="1">
          <mxGeometry x="360" y="140" width="80" height="80" as="geometry" />
        </mxCell>
        <mxCell id="kZJSMgrCVQplBnDcgvXw-15" value="" style="endArrow=none;html=1;rounded=0;entryX=0.5;entryY=1;entryDx=0;entryDy=0;exitX=0.25;exitY=0;exitDx=0;exitDy=0;" parent="1" source="kZJSMgrCVQplBnDcgvXw-1" target="kZJSMgrCVQplBnDcgvXw-2" edge="1">
          <mxGeometry width="50" height="50" relative="1" as="geometry">
            <mxPoint x="70" y="140" as="sourcePoint" />
            <mxPoint x="120" y="90" as="targetPoint" />
            <Array as="points">
              <mxPoint x="210" y="110" />
              <mxPoint x="100" y="110" />
            </Array>
          </mxGeometry>
        </mxCell>
        <mxCell id="kZJSMgrCVQplBnDcgvXw-16" value="" style="endArrow=none;html=1;rounded=0;entryX=0.5;entryY=0;entryDx=0;entryDy=0;exitX=0.25;exitY=1;exitDx=0;exitDy=0;" parent="1" source="kZJSMgrCVQplBnDcgvXw-1" target="kZJSMgrCVQplBnDcgvXw-7" edge="1">
          <mxGeometry width="50" height="50" relative="1" as="geometry">
            <mxPoint x="210" y="290" as="sourcePoint" />
            <mxPoint x="100" y="220" as="targetPoint" />
            <Array as="points">
              <mxPoint x="210" y="250" />
              <mxPoint x="100" y="250" />
            </Array>
          </mxGeometry>
        </mxCell>
        <mxCell id="kZJSMgrCVQplBnDcgvXw-17" value="" style="endArrow=none;html=1;rounded=0;exitX=1;exitY=0.5;exitDx=0;exitDy=0;entryX=0;entryY=0.5;entryDx=0;entryDy=0;" parent="1" source="kZJSMgrCVQplBnDcgvXw-4" target="kZJSMgrCVQplBnDcgvXw-1" edge="1">
          <mxGeometry width="50" height="50" relative="1" as="geometry">
            <mxPoint x="140" y="240" as="sourcePoint" />
            <mxPoint x="190" y="190" as="targetPoint" />
          </mxGeometry>
        </mxCell>
        <mxCell id="kZJSMgrCVQplBnDcgvXw-18" value="" style="endArrow=none;html=1;rounded=0;entryX=0.5;entryY=1;entryDx=0;entryDy=0;exitX=0.5;exitY=0;exitDx=0;exitDy=0;" parent="1" source="kZJSMgrCVQplBnDcgvXw-1" target="kZJSMgrCVQplBnDcgvXw-11" edge="1">
          <mxGeometry width="50" height="50" relative="1" as="geometry">
            <mxPoint x="310" y="150" as="sourcePoint" />
            <mxPoint x="360" y="100" as="targetPoint" />
          </mxGeometry>
        </mxCell>
        <mxCell id="kZJSMgrCVQplBnDcgvXw-19" value="" style="endArrow=none;html=1;rounded=0;entryX=0.5;entryY=1;entryDx=0;entryDy=0;exitX=0.5;exitY=0;exitDx=0;exitDy=0;" parent="1" source="kZJSMgrCVQplBnDcgvXw-9" target="kZJSMgrCVQplBnDcgvXw-1" edge="1">
          <mxGeometry width="50" height="50" relative="1" as="geometry">
            <mxPoint x="380" y="300" as="sourcePoint" />
            <mxPoint x="430" y="250" as="targetPoint" />
          </mxGeometry>
        </mxCell>
        <mxCell id="kZJSMgrCVQplBnDcgvXw-20" value="" style="endArrow=none;html=1;rounded=0;exitX=1;exitY=0.5;exitDx=0;exitDy=0;entryX=0;entryY=0.5;entryDx=0;entryDy=0;" parent="1" source="kZJSMgrCVQplBnDcgvXw-1" target="kZJSMgrCVQplBnDcgvXw-13" edge="1">
          <mxGeometry width="50" height="50" relative="1" as="geometry">
            <mxPoint x="340" y="240" as="sourcePoint" />
            <mxPoint x="390" y="190" as="targetPoint" />
          </mxGeometry>
        </mxCell>
        <mxCell id="kZJSMgrCVQplBnDcgvXw-22" value="Productos" style="rounded=1;whiteSpace=wrap;html=1;" parent="1" vertex="1">
          <mxGeometry x="520" y="150" width="120" height="60" as="geometry" />
        </mxCell>
        <mxCell id="kZJSMgrCVQplBnDcgvXw-24" value="&lt;u&gt;Id_productos&lt;/u&gt;" style="ellipse;whiteSpace=wrap;html=1;" parent="1" vertex="1">
          <mxGeometry x="740" y="230" width="100" height="50" as="geometry" />
        </mxCell>
        <mxCell id="kZJSMgrCVQplBnDcgvXw-26" value="Id_categoria" style="ellipse;whiteSpace=wrap;html=1;" parent="1" vertex="1">
          <mxGeometry x="470" y="360" width="100" height="50" as="geometry" />
        </mxCell>
        <mxCell id="kZJSMgrCVQplBnDcgvXw-28" value="Id_categoria" style="ellipse;whiteSpace=wrap;html=1;" parent="1" vertex="1">
          <mxGeometry x="740" y="50" width="100" height="50" as="geometry" />
        </mxCell>
        <mxCell id="kZJSMgrCVQplBnDcgvXw-29" value="Nombre_producto" style="ellipse;whiteSpace=wrap;html=1;" parent="1" vertex="1">
          <mxGeometry x="740" y="105" width="100" height="50" as="geometry" />
        </mxCell>
        <mxCell id="kZJSMgrCVQplBnDcgvXw-31" value="Descripcion_&lt;br&gt;producto" style="ellipse;whiteSpace=wrap;html=1;" parent="1" vertex="1">
          <mxGeometry x="420" width="100" height="50" as="geometry" />
        </mxCell>
        <mxCell id="kZJSMgrCVQplBnDcgvXw-34" value="Precio_producto" style="ellipse;whiteSpace=wrap;html=1;" parent="1" vertex="1">
          <mxGeometry x="740" y="280" width="100" height="50" as="geometry" />
        </mxCell>
        <mxCell id="kZJSMgrCVQplBnDcgvXw-36" value="Imagen_producto" style="ellipse;whiteSpace=wrap;html=1;" parent="1" vertex="1">
          <mxGeometry x="345" y="360" width="110" height="50" as="geometry" />
        </mxCell>
        <mxCell id="kZJSMgrCVQplBnDcgvXw-38" value="Estado_producto" style="ellipse;whiteSpace=wrap;html=1;" parent="1" vertex="1">
          <mxGeometry x="530" width="100" height="50" as="geometry" />
        </mxCell>
        <mxCell id="kZJSMgrCVQplBnDcgvXw-40" value="Id_admisnistrador" style="ellipse;whiteSpace=wrap;html=1;" parent="1" vertex="1">
          <mxGeometry x="740" width="100" height="50" as="geometry" />
        </mxCell>
        <mxCell id="kZJSMgrCVQplBnDcgvXw-21" value="" style="endArrow=none;html=1;rounded=0;exitX=1;exitY=0.5;exitDx=0;exitDy=0;entryX=0;entryY=0.5;entryDx=0;entryDy=0;" parent="1" source="kZJSMgrCVQplBnDcgvXw-13" target="kZJSMgrCVQplBnDcgvXw-22" edge="1">
          <mxGeometry width="50" height="50" relative="1" as="geometry">
            <mxPoint x="460" y="190" as="sourcePoint" />
            <mxPoint x="470" y="180" as="targetPoint" />
          </mxGeometry>
        </mxCell>
        <mxCell id="kZJSMgrCVQplBnDcgvXw-46" value="" style="endArrow=none;html=1;rounded=0;exitX=0.5;exitY=0;exitDx=0;exitDy=0;entryX=0.5;entryY=1;entryDx=0;entryDy=0;" parent="1" source="kZJSMgrCVQplBnDcgvXw-22" target="kZJSMgrCVQplBnDcgvXw-38" edge="1">
          <mxGeometry width="50" height="50" relative="1" as="geometry">
            <mxPoint x="570" y="150" as="sourcePoint" />
            <mxPoint x="620" y="100" as="targetPoint" />
          </mxGeometry>
        </mxCell>
        <mxCell id="kZJSMgrCVQplBnDcgvXw-47" value="" style="endArrow=none;html=1;rounded=0;exitX=0.39;exitY=0.977;exitDx=0;exitDy=0;exitPerimeter=0;entryX=0.5;entryY=0;entryDx=0;entryDy=0;" parent="1" source="kZJSMgrCVQplBnDcgvXw-22" target="kZJSMgrCVQplBnDcgvXw-26" edge="1">
          <mxGeometry width="50" height="50" relative="1" as="geometry">
            <mxPoint x="600" y="140" as="sourcePoint" />
            <mxPoint x="690" y="20" as="targetPoint" />
            <Array as="points">
              <mxPoint x="567" y="320" />
              <mxPoint x="520" y="320" />
            </Array>
          </mxGeometry>
        </mxCell>
        <mxCell id="kZJSMgrCVQplBnDcgvXw-48" value="" style="endArrow=none;html=1;rounded=0;exitX=0.75;exitY=0;exitDx=0;exitDy=0;entryX=0;entryY=0.5;entryDx=0;entryDy=0;" parent="1" source="kZJSMgrCVQplBnDcgvXw-22" target="kZJSMgrCVQplBnDcgvXw-40" edge="1">
          <mxGeometry width="50" height="50" relative="1" as="geometry">
            <mxPoint x="640" y="140" as="sourcePoint" />
            <mxPoint x="610" y="40" as="targetPoint" />
            <Array as="points">
              <mxPoint x="610" y="60" />
              <mxPoint x="710" y="60" />
              <mxPoint x="710" y="25" />
            </Array>
          </mxGeometry>
        </mxCell>
        <mxCell id="kZJSMgrCVQplBnDcgvXw-49" value="" style="endArrow=none;html=1;rounded=0;exitX=0.834;exitY=-0.014;exitDx=0;exitDy=0;exitPerimeter=0;entryX=0;entryY=0.5;entryDx=0;entryDy=0;" parent="1" source="kZJSMgrCVQplBnDcgvXw-22" target="kZJSMgrCVQplBnDcgvXw-28" edge="1">
          <mxGeometry width="50" height="50" relative="1" as="geometry">
            <mxPoint x="630" y="140" as="sourcePoint" />
            <mxPoint x="620" y="50" as="targetPoint" />
            <Array as="points">
              <mxPoint x="620" y="75" />
            </Array>
          </mxGeometry>
        </mxCell>
        <mxCell id="kZJSMgrCVQplBnDcgvXw-50" value="" style="endArrow=none;html=1;rounded=0;exitX=0.928;exitY=-0.029;exitDx=0;exitDy=0;exitPerimeter=0;entryX=0;entryY=0.5;entryDx=0;entryDy=0;" parent="1" source="kZJSMgrCVQplBnDcgvXw-22" target="kZJSMgrCVQplBnDcgvXw-29" edge="1">
          <mxGeometry width="50" height="50" relative="1" as="geometry">
            <mxPoint x="680" y="130" as="sourcePoint" />
            <mxPoint x="640" y="80" as="targetPoint" />
            <Array as="points">
              <mxPoint x="631" y="130" />
            </Array>
          </mxGeometry>
        </mxCell>
        <mxCell id="kZJSMgrCVQplBnDcgvXw-51" value="" style="endArrow=none;html=1;rounded=0;exitX=0.25;exitY=0;exitDx=0;exitDy=0;entryX=0.5;entryY=1;entryDx=0;entryDy=0;" parent="1" source="kZJSMgrCVQplBnDcgvXw-22" target="kZJSMgrCVQplBnDcgvXw-31" edge="1">
          <mxGeometry width="50" height="50" relative="1" as="geometry">
            <mxPoint x="680" y="190" as="sourcePoint" />
            <mxPoint x="660" y="140" as="targetPoint" />
            <Array as="points">
              <mxPoint x="550" y="100" />
              <mxPoint x="470" y="100" />
            </Array>
          </mxGeometry>
        </mxCell>
        <mxCell id="kZJSMgrCVQplBnDcgvXw-52" value="" style="endArrow=none;html=1;rounded=0;entryX=0.5;entryY=0;entryDx=0;entryDy=0;exitX=0.167;exitY=1;exitDx=0;exitDy=0;exitPerimeter=0;" parent="1" source="kZJSMgrCVQplBnDcgvXw-22" target="kZJSMgrCVQplBnDcgvXw-36" edge="1">
          <mxGeometry width="50" height="50" relative="1" as="geometry">
            <mxPoint x="455" y="220" as="sourcePoint" />
            <mxPoint x="720" y="180" as="targetPoint" />
            <Array as="points">
              <mxPoint x="540" y="270" />
              <mxPoint x="400" y="270" />
            </Array>
          </mxGeometry>
        </mxCell>
        <mxCell id="kZJSMgrCVQplBnDcgvXw-53" value="" style="endArrow=none;html=1;rounded=0;exitX=0;exitY=0.5;exitDx=0;exitDy=0;" parent="1" source="kZJSMgrCVQplBnDcgvXw-24" edge="1">
          <mxGeometry width="50" height="50" relative="1" as="geometry">
            <mxPoint x="670" y="280" as="sourcePoint" />
            <mxPoint x="640" y="195" as="targetPoint" />
            <Array as="points">
              <mxPoint x="640" y="255" />
            </Array>
          </mxGeometry>
        </mxCell>
        <mxCell id="kZJSMgrCVQplBnDcgvXw-54" value="" style="endArrow=none;html=1;rounded=0;exitX=0;exitY=0.5;exitDx=0;exitDy=0;" parent="1" source="kZJSMgrCVQplBnDcgvXw-34" edge="1">
          <mxGeometry width="50" height="50" relative="1" as="geometry">
            <mxPoint x="610" y="340" as="sourcePoint" />
            <mxPoint x="624" y="210" as="targetPoint" />
            <Array as="points">
              <mxPoint x="624" y="305" />
            </Array>
          </mxGeometry>
        </mxCell>
        <mxCell id="kZJSMgrCVQplBnDcgvXw-57" value="Existencias_&lt;br&gt;productos" style="ellipse;whiteSpace=wrap;html=1;" parent="1" vertex="1">
          <mxGeometry x="750" y="340" width="100" height="50" as="geometry" />
        </mxCell>
        <mxCell id="kZJSMgrCVQplBnDcgvXw-58" value="" style="endArrow=none;html=1;rounded=0;entryX=0.75;entryY=1;entryDx=0;entryDy=0;exitX=0;exitY=0;exitDx=0;exitDy=0;" parent="1" source="kZJSMgrCVQplBnDcgvXw-57" target="kZJSMgrCVQplBnDcgvXw-22" edge="1">
          <mxGeometry width="50" height="50" relative="1" as="geometry">
            <mxPoint x="530" y="340" as="sourcePoint" />
            <mxPoint x="580" y="290" as="targetPoint" />
            <Array as="points">
              <mxPoint x="610" y="350" />
            </Array>
          </mxGeometry>
        </mxCell>
        <mxCell id="kZJSMgrCVQplBnDcgvXw-59" value="" style="endArrow=none;html=1;rounded=0;entryX=0.646;entryY=1.006;entryDx=0;entryDy=0;entryPerimeter=0;exitX=0;exitY=0.5;exitDx=0;exitDy=0;" parent="1" source="kZJSMgrCVQplBnDcgvXw-60" target="kZJSMgrCVQplBnDcgvXw-22" edge="1">
          <mxGeometry width="50" height="50" relative="1" as="geometry">
            <mxPoint x="598" y="400" as="sourcePoint" />
            <mxPoint x="570.0000000000001" y="219.9999999999999" as="targetPoint" />
            <Array as="points">
              <mxPoint x="598" y="385" />
            </Array>
          </mxGeometry>
        </mxCell>
        <mxCell id="kZJSMgrCVQplBnDcgvXw-60" value="Fecha_registro" style="ellipse;whiteSpace=wrap;html=1;" parent="1" vertex="1">
          <mxGeometry x="650" y="360" width="100" height="50" as="geometry" />
        </mxCell>
        <mxCell id="kZJSMgrCVQplBnDcgvXw-61" value="" style="endArrow=none;html=1;rounded=0;entryX=0.5;entryY=1;entryDx=0;entryDy=0;exitX=0.5;exitY=0;exitDx=0;exitDy=0;" parent="1" source="kZJSMgrCVQplBnDcgvXw-62" target="kZJSMgrCVQplBnDcgvXw-22" edge="1">
          <mxGeometry width="50" height="50" relative="1" as="geometry">
            <mxPoint x="580" y="420" as="sourcePoint" />
            <mxPoint x="550" y="390" as="targetPoint" />
          </mxGeometry>
        </mxCell>
        <mxCell id="kZJSMgrCVQplBnDcgvXw-62" value="Pertenece" style="rhombus;whiteSpace=wrap;html=1;" parent="1" vertex="1">
          <mxGeometry x="515" y="440" width="130" height="80" as="geometry" />
        </mxCell>
        <mxCell id="kZJSMgrCVQplBnDcgvXw-63" value="" style="endArrow=none;html=1;rounded=0;entryX=0.5;entryY=1;entryDx=0;entryDy=0;exitX=0.5;exitY=0;exitDx=0;exitDy=0;" parent="1" source="kZJSMgrCVQplBnDcgvXw-64" target="kZJSMgrCVQplBnDcgvXw-62" edge="1">
          <mxGeometry width="50" height="50" relative="1" as="geometry">
            <mxPoint x="580" y="650" as="sourcePoint" />
            <mxPoint x="580" y="550" as="targetPoint" />
          </mxGeometry>
        </mxCell>
        <mxCell id="kZJSMgrCVQplBnDcgvXw-64" value="CategorÃ­a&amp;nbsp;" style="rounded=1;whiteSpace=wrap;html=1;" parent="1" vertex="1">
          <mxGeometry x="520" y="620" width="120" height="60" as="geometry" />
        </mxCell>
        <mxCell id="kZJSMgrCVQplBnDcgvXw-65" value="" style="endArrow=none;html=1;rounded=0;exitX=0.5;exitY=1;exitDx=0;exitDy=0;entryX=0.5;entryY=0;entryDx=0;entryDy=0;" parent="1" source="kZJSMgrCVQplBnDcgvXw-64" target="kZJSMgrCVQplBnDcgvXw-66" edge="1">
          <mxGeometry width="50" height="50" relative="1" as="geometry">
            <mxPoint x="580" y="830" as="sourcePoint" />
            <mxPoint x="580" y="850" as="targetPoint" />
          </mxGeometry>
        </mxCell>
        <mxCell id="kZJSMgrCVQplBnDcgvXw-66" value="&lt;u&gt;Id_categorÃ­a&lt;/u&gt;" style="ellipse;whiteSpace=wrap;html=1;" parent="1" vertex="1">
          <mxGeometry x="530" y="780" width="100" height="50" as="geometry" />
        </mxCell>
        <mxCell id="kZJSMgrCVQplBnDcgvXw-67" value="Nombre_categorÃ­a" style="ellipse;whiteSpace=wrap;html=1;" parent="1" vertex="1">
          <mxGeometry x="680" y="740" width="100" height="50" as="geometry" />
        </mxCell>
        <mxCell id="kZJSMgrCVQplBnDcgvXw-68" value="" style="endArrow=none;html=1;rounded=0;exitX=0.75;exitY=1;exitDx=0;exitDy=0;entryX=0.292;entryY=0.025;entryDx=0;entryDy=0;entryPerimeter=0;" parent="1" source="kZJSMgrCVQplBnDcgvXw-64" target="kZJSMgrCVQplBnDcgvXw-67" edge="1">
          <mxGeometry width="50" height="50" relative="1" as="geometry">
            <mxPoint x="640" y="800" as="sourcePoint" />
            <mxPoint x="690" y="820" as="targetPoint" />
            <Array as="points">
              <mxPoint x="610" y="740" />
            </Array>
          </mxGeometry>
        </mxCell>
        <mxCell id="kZJSMgrCVQplBnDcgvXw-69" value="" style="endArrow=none;html=1;rounded=0;entryX=0.5;entryY=0;entryDx=0;entryDy=0;exitX=0.25;exitY=1;exitDx=0;exitDy=0;" parent="1" source="kZJSMgrCVQplBnDcgvXw-64" target="kZJSMgrCVQplBnDcgvXw-70" edge="1">
          <mxGeometry width="50" height="50" relative="1" as="geometry">
            <mxPoint x="540" y="790" as="sourcePoint" />
            <mxPoint x="730" y="775" as="targetPoint" />
            <Array as="points">
              <mxPoint x="550" y="740" />
            </Array>
          </mxGeometry>
        </mxCell>
        <mxCell id="kZJSMgrCVQplBnDcgvXw-70" value="DescripciÃ³n_&lt;br&gt;categorÃ­a" style="ellipse;whiteSpace=wrap;html=1;" parent="1" vertex="1">
          <mxGeometry x="360" y="740" width="100" height="50" as="geometry" />
        </mxCell>
        <mxCell id="kZJSMgrCVQplBnDcgvXw-73" value="" style="endArrow=none;html=1;rounded=0;entryX=0;entryY=0.5;entryDx=0;entryDy=0;exitX=1;exitY=0.5;exitDx=0;exitDy=0;" parent="1" source="kZJSMgrCVQplBnDcgvXw-75" target="kZJSMgrCVQplBnDcgvXw-64" edge="1">
          <mxGeometry width="50" height="50" relative="1" as="geometry">
            <mxPoint x="470" y="760" as="sourcePoint" />
            <mxPoint x="470" y="760" as="targetPoint" />
          </mxGeometry>
        </mxCell>
        <mxCell id="kZJSMgrCVQplBnDcgvXw-75" value="Imagen_categorÃ­a" style="ellipse;whiteSpace=wrap;html=1;" parent="1" vertex="1">
          <mxGeometry x="350" y="625" width="100" height="50" as="geometry" />
        </mxCell>
        <mxCell id="kZJSMgrCVQplBnDcgvXw-77" value="" style="endArrow=none;html=1;rounded=0;exitX=1;exitY=0.5;exitDx=0;exitDy=0;entryX=0;entryY=0.5;entryDx=0;entryDy=0;" parent="1" source="kZJSMgrCVQplBnDcgvXw-22" target="kZJSMgrCVQplBnDcgvXw-78" edge="1">
          <mxGeometry width="50" height="50" relative="1" as="geometry">
            <mxPoint x="980" y="230" as="sourcePoint" />
            <mxPoint x="1070" y="180" as="targetPoint" />
          </mxGeometry>
        </mxCell>
        <mxCell id="kZJSMgrCVQplBnDcgvXw-78" value="Incluye" style="rhombus;whiteSpace=wrap;html=1;" parent="1" vertex="1">
          <mxGeometry x="970" y="140" width="120" height="80" as="geometry" />
        </mxCell>
        <mxCell id="kZJSMgrCVQplBnDcgvXw-79" value="" style="endArrow=none;html=1;rounded=0;exitX=1;exitY=0.5;exitDx=0;exitDy=0;entryX=0;entryY=0.5;entryDx=0;entryDy=0;" parent="1" source="kZJSMgrCVQplBnDcgvXw-78" target="kZJSMgrCVQplBnDcgvXw-80" edge="1">
          <mxGeometry width="50" height="50" relative="1" as="geometry">
            <mxPoint x="1140" y="210" as="sourcePoint" />
            <mxPoint x="1430" y="180" as="targetPoint" />
          </mxGeometry>
        </mxCell>
        <mxCell id="kZJSMgrCVQplBnDcgvXw-80" value="Detalle de pedido" style="rounded=1;whiteSpace=wrap;html=1;" parent="1" vertex="1">
          <mxGeometry x="1430" y="150" width="120" height="60" as="geometry" />
        </mxCell>
        <mxCell id="kZJSMgrCVQplBnDcgvXw-81" value="" style="endArrow=none;html=1;rounded=0;exitX=0.5;exitY=1;exitDx=0;exitDy=0;entryX=0.25;entryY=0;entryDx=0;entryDy=0;" parent="1" source="kZJSMgrCVQplBnDcgvXw-82" target="kZJSMgrCVQplBnDcgvXw-80" edge="1">
          <mxGeometry width="50" height="50" relative="1" as="geometry">
            <mxPoint x="1390" y="-10" as="sourcePoint" />
            <mxPoint x="1440" y="150" as="targetPoint" />
            <Array as="points">
              <mxPoint x="1350" y="70" />
              <mxPoint x="1460" y="70" />
            </Array>
          </mxGeometry>
        </mxCell>
        <mxCell id="kZJSMgrCVQplBnDcgvXw-82" value="&lt;u&gt;Id_detalle&lt;/u&gt;" style="ellipse;whiteSpace=wrap;html=1;" parent="1" vertex="1">
          <mxGeometry x="1300" width="100" height="50" as="geometry" />
        </mxCell>
        <mxCell id="kZJSMgrCVQplBnDcgvXw-84" style="edgeStyle=orthogonalEdgeStyle;rounded=0;orthogonalLoop=1;jettySize=auto;html=1;exitX=0.5;exitY=1;exitDx=0;exitDy=0;" parent="1" source="kZJSMgrCVQplBnDcgvXw-82" target="kZJSMgrCVQplBnDcgvXw-82" edge="1">
          <mxGeometry relative="1" as="geometry" />
        </mxCell>
        <mxCell id="kZJSMgrCVQplBnDcgvXw-85" value="" style="endArrow=none;html=1;rounded=0;exitX=0.75;exitY=0;exitDx=0;exitDy=0;entryX=0.5;entryY=1;entryDx=0;entryDy=0;" parent="1" source="kZJSMgrCVQplBnDcgvXw-80" target="kZJSMgrCVQplBnDcgvXw-86" edge="1">
          <mxGeometry width="50" height="50" relative="1" as="geometry">
            <mxPoint x="1550" y="200" as="sourcePoint" />
            <mxPoint x="1620" y="200" as="targetPoint" />
            <Array as="points">
              <mxPoint x="1520" y="70" />
              <mxPoint x="1640" y="70" />
            </Array>
          </mxGeometry>
        </mxCell>
        <mxCell id="kZJSMgrCVQplBnDcgvXw-86" value="Id_pedido" style="ellipse;whiteSpace=wrap;html=1;" parent="1" vertex="1">
          <mxGeometry x="1590" width="100" height="50" as="geometry" />
        </mxCell>
        <mxCell id="kZJSMgrCVQplBnDcgvXw-87" value="" style="endArrow=none;html=1;rounded=0;exitX=0.5;exitY=0;exitDx=0;exitDy=0;entryX=0.5;entryY=1;entryDx=0;entryDy=0;" parent="1" source="kZJSMgrCVQplBnDcgvXw-80" target="kZJSMgrCVQplBnDcgvXw-88" edge="1">
          <mxGeometry width="50" height="50" relative="1" as="geometry">
            <mxPoint x="1550" y="160" as="sourcePoint" />
            <mxPoint x="1620" y="150" as="targetPoint" />
            <Array as="points" />
          </mxGeometry>
        </mxCell>
        <mxCell id="kZJSMgrCVQplBnDcgvXw-88" value="Id_producto" style="ellipse;whiteSpace=wrap;html=1;" parent="1" vertex="1">
          <mxGeometry x="1440" width="100" height="50" as="geometry" />
        </mxCell>
        <mxCell id="kZJSMgrCVQplBnDcgvXw-89" value="Cantidad_producto" style="ellipse;whiteSpace=wrap;html=1;" parent="1" vertex="1">
          <mxGeometry x="1590" y="340" width="100" height="50" as="geometry" />
        </mxCell>
        <mxCell id="kZJSMgrCVQplBnDcgvXw-90" value="" style="endArrow=none;html=1;rounded=0;entryX=0.75;entryY=1;entryDx=0;entryDy=0;exitX=0.5;exitY=0;exitDx=0;exitDy=0;" parent="1" source="kZJSMgrCVQplBnDcgvXw-89" target="kZJSMgrCVQplBnDcgvXw-80" edge="1">
          <mxGeometry width="50" height="50" relative="1" as="geometry">
            <mxPoint x="1610" y="260" as="sourcePoint" />
            <mxPoint x="1560" y="240" as="targetPoint" />
            <Array as="points">
              <mxPoint x="1640" y="300" />
              <mxPoint x="1520" y="300" />
            </Array>
          </mxGeometry>
        </mxCell>
        <mxCell id="kZJSMgrCVQplBnDcgvXw-92" value="" style="endArrow=none;html=1;rounded=0;entryX=0.25;entryY=1;entryDx=0;entryDy=0;exitX=0.5;exitY=0;exitDx=0;exitDy=0;" parent="1" source="kZJSMgrCVQplBnDcgvXw-93" target="kZJSMgrCVQplBnDcgvXw-80" edge="1">
          <mxGeometry width="50" height="50" relative="1" as="geometry">
            <mxPoint x="1360" y="290" as="sourcePoint" />
            <mxPoint x="1380" y="320" as="targetPoint" />
            <Array as="points">
              <mxPoint x="1350" y="300" />
              <mxPoint x="1460" y="300" />
            </Array>
          </mxGeometry>
        </mxCell>
        <mxCell id="kZJSMgrCVQplBnDcgvXw-93" value="Precio_producto" style="ellipse;whiteSpace=wrap;html=1;" parent="1" vertex="1">
          <mxGeometry x="1300" y="340" width="100" height="50" as="geometry" />
        </mxCell>
        <mxCell id="kZJSMgrCVQplBnDcgvXw-94" value="" style="endArrow=none;html=1;rounded=0;entryX=0.5;entryY=1;entryDx=0;entryDy=0;exitX=0.5;exitY=0;exitDx=0;exitDy=0;exitPerimeter=0;" parent="1" source="kZJSMgrCVQplBnDcgvXw-95" target="kZJSMgrCVQplBnDcgvXw-80" edge="1">
          <mxGeometry width="50" height="50" relative="1" as="geometry">
            <mxPoint x="1490" y="430" as="sourcePoint" />
            <mxPoint x="1540" y="410" as="targetPoint" />
          </mxGeometry>
        </mxCell>
        <mxCell id="kZJSMgrCVQplBnDcgvXw-95" value="Relaciona" style="rhombus;whiteSpace=wrap;html=1;" parent="1" vertex="1">
          <mxGeometry x="1427.5" y="440" width="125" height="80" as="geometry" />
        </mxCell>
        <mxCell id="kZJSMgrCVQplBnDcgvXw-96" value="" style="endArrow=none;html=1;rounded=0;entryX=0.5;entryY=1;entryDx=0;entryDy=0;exitX=0.5;exitY=0;exitDx=0;exitDy=0;" parent="1" source="kZJSMgrCVQplBnDcgvXw-97" target="kZJSMgrCVQplBnDcgvXw-95" edge="1">
          <mxGeometry width="50" height="50" relative="1" as="geometry">
            <mxPoint x="1490" y="620" as="sourcePoint" />
            <mxPoint x="1450" y="620" as="targetPoint" />
          </mxGeometry>
        </mxCell>
        <mxCell id="kZJSMgrCVQplBnDcgvXw-97" value="ReseÃ±a" style="rounded=1;whiteSpace=wrap;html=1;" parent="1" vertex="1">
          <mxGeometry x="1430" y="620" width="120" height="60" as="geometry" />
        </mxCell>
        <mxCell id="kZJSMgrCVQplBnDcgvXw-98" value="&lt;u&gt;Id_reseÃ±a&lt;/u&gt;" style="ellipse;whiteSpace=wrap;html=1;" parent="1" vertex="1">
          <mxGeometry x="1370" y="780" width="100" height="50" as="geometry" />
        </mxCell>
        <mxCell id="kZJSMgrCVQplBnDcgvXw-99" value="" style="endArrow=none;html=1;rounded=0;exitX=0.5;exitY=0;exitDx=0;exitDy=0;entryX=0.341;entryY=1;entryDx=0;entryDy=0;entryPerimeter=0;" parent="1" source="kZJSMgrCVQplBnDcgvXw-98" target="kZJSMgrCVQplBnDcgvXw-97" edge="1">
          <mxGeometry width="50" height="50" relative="1" as="geometry">
            <mxPoint x="1580" y="750" as="sourcePoint" />
            <mxPoint x="1630" y="700" as="targetPoint" />
            <Array as="points">
              <mxPoint x="1420" y="740" />
              <mxPoint x="1471" y="740" />
            </Array>
          </mxGeometry>
        </mxCell>
        <mxCell id="kZJSMgrCVQplBnDcgvXw-100" value="" style="endArrow=none;html=1;rounded=0;entryX=0.25;entryY=1;entryDx=0;entryDy=0;exitX=0.5;exitY=0;exitDx=0;exitDy=0;" parent="1" source="kZJSMgrCVQplBnDcgvXw-101" target="kZJSMgrCVQplBnDcgvXw-97" edge="1">
          <mxGeometry width="50" height="50" relative="1" as="geometry">
            <mxPoint x="1340" y="770" as="sourcePoint" />
            <mxPoint x="1370" y="790" as="targetPoint" />
            <Array as="points">
              <mxPoint x="1290" y="720" />
              <mxPoint x="1460" y="720" />
            </Array>
          </mxGeometry>
        </mxCell>
        <mxCell id="kZJSMgrCVQplBnDcgvXw-101" value="Id_detalle" style="ellipse;whiteSpace=wrap;html=1;" parent="1" vertex="1">
          <mxGeometry x="1241" y="780" width="100" height="50" as="geometry" />
        </mxCell>
        <mxCell id="kZJSMgrCVQplBnDcgvXw-102" value="" style="endArrow=none;html=1;rounded=0;entryX=0.75;entryY=1;entryDx=0;entryDy=0;exitX=0.5;exitY=0;exitDx=0;exitDy=0;" parent="1" source="kZJSMgrCVQplBnDcgvXw-103" target="kZJSMgrCVQplBnDcgvXw-97" edge="1">
          <mxGeometry width="50" height="50" relative="1" as="geometry">
            <mxPoint x="1670" y="800" as="sourcePoint" />
            <mxPoint x="1740" y="740" as="targetPoint" />
            <Array as="points">
              <mxPoint x="1704" y="720" />
              <mxPoint x="1520" y="720" />
            </Array>
          </mxGeometry>
        </mxCell>
        <mxCell id="kZJSMgrCVQplBnDcgvXw-103" value="Calificacion_&lt;br&gt;producto" style="ellipse;whiteSpace=wrap;html=1;" parent="1" vertex="1">
          <mxGeometry x="1654" y="780" width="100" height="50" as="geometry" />
        </mxCell>
        <mxCell id="kZJSMgrCVQplBnDcgvXw-104" value="" style="endArrow=none;html=1;rounded=0;entryX=0;entryY=0.5;entryDx=0;entryDy=0;exitX=1;exitY=0.5;exitDx=0;exitDy=0;" parent="1" source="kZJSMgrCVQplBnDcgvXw-105" target="kZJSMgrCVQplBnDcgvXw-97" edge="1">
          <mxGeometry width="50" height="50" relative="1" as="geometry">
            <mxPoint x="1350" y="650" as="sourcePoint" />
            <mxPoint x="1430" y="650" as="targetPoint" />
          </mxGeometry>
        </mxCell>
        <mxCell id="kZJSMgrCVQplBnDcgvXw-105" value="Comentario_&lt;br&gt;producto" style="ellipse;whiteSpace=wrap;html=1;" parent="1" vertex="1">
          <mxGeometry x="1241" y="625" width="100" height="50" as="geometry" />
        </mxCell>
        <mxCell id="kZJSMgrCVQplBnDcgvXw-106" value="Fecha_valoracion" style="ellipse;whiteSpace=wrap;html=1;" parent="1" vertex="1">
          <mxGeometry x="1510" y="780" width="100" height="50" as="geometry" />
        </mxCell>
        <mxCell id="kZJSMgrCVQplBnDcgvXw-107" value="" style="endArrow=none;html=1;rounded=0;exitX=0.5;exitY=0;exitDx=0;exitDy=0;entryX=0.6;entryY=1.016;entryDx=0;entryDy=0;entryPerimeter=0;" parent="1" source="kZJSMgrCVQplBnDcgvXw-106" target="kZJSMgrCVQplBnDcgvXw-97" edge="1">
          <mxGeometry width="50" height="50" relative="1" as="geometry">
            <mxPoint x="1540" y="780" as="sourcePoint" />
            <mxPoint x="1590" y="730" as="targetPoint" />
            <Array as="points">
              <mxPoint x="1560" y="740" />
              <mxPoint x="1502" y="740" />
            </Array>
          </mxGeometry>
        </mxCell>
        <mxCell id="kZJSMgrCVQplBnDcgvXw-108" value="Estado_comentario" style="ellipse;whiteSpace=wrap;html=1;" parent="1" vertex="1">
          <mxGeometry x="1651" y="625" width="106" height="50" as="geometry" />
        </mxCell>
        <mxCell id="kZJSMgrCVQplBnDcgvXw-109" value="" style="endArrow=none;html=1;rounded=0;exitX=1;exitY=0.5;exitDx=0;exitDy=0;entryX=0;entryY=0.5;entryDx=0;entryDy=0;" parent="1" source="kZJSMgrCVQplBnDcgvXw-97" target="kZJSMgrCVQplBnDcgvXw-108" edge="1">
          <mxGeometry width="50" height="50" relative="1" as="geometry">
            <mxPoint x="1610" y="660" as="sourcePoint" />
            <mxPoint x="1660" y="610" as="targetPoint" />
          </mxGeometry>
        </mxCell>
        <mxCell id="kZJSMgrCVQplBnDcgvXw-110" value="" style="endArrow=none;html=1;rounded=0;exitX=1;exitY=0.5;exitDx=0;exitDy=0;entryX=0.044;entryY=0.49;entryDx=0;entryDy=0;entryPerimeter=0;" parent="1" source="kZJSMgrCVQplBnDcgvXw-80" target="kZJSMgrCVQplBnDcgvXw-111" edge="1">
          <mxGeometry width="50" height="50" relative="1" as="geometry">
            <mxPoint x="1670" y="230" as="sourcePoint" />
            <mxPoint x="1830" y="180" as="targetPoint" />
          </mxGeometry>
        </mxCell>
        <mxCell id="kZJSMgrCVQplBnDcgvXw-111" value="Relaciona" style="rhombus;whiteSpace=wrap;html=1;" parent="1" vertex="1">
          <mxGeometry x="1840" y="140" width="140" height="80" as="geometry" />
        </mxCell>
        <mxCell id="kZJSMgrCVQplBnDcgvXw-112" value="" style="endArrow=none;html=1;rounded=0;exitX=1;exitY=0.5;exitDx=0;exitDy=0;entryX=0;entryY=0.5;entryDx=0;entryDy=0;" parent="1" source="kZJSMgrCVQplBnDcgvXw-111" target="kZJSMgrCVQplBnDcgvXw-113" edge="1">
          <mxGeometry width="50" height="50" relative="1" as="geometry">
            <mxPoint x="1980" y="180.5" as="sourcePoint" />
            <mxPoint x="2276" y="179.5" as="targetPoint" />
          </mxGeometry>
        </mxCell>
        <mxCell id="kZJSMgrCVQplBnDcgvXw-113" value="Pedido" style="rounded=1;whiteSpace=wrap;html=1;" parent="1" vertex="1">
          <mxGeometry x="2230" y="150" width="120" height="60" as="geometry" />
        </mxCell>
        <mxCell id="_j-Ffw_kFz6ru1a1oyS1-1" value="" style="endArrow=none;html=1;rounded=0;exitX=0.5;exitY=0;exitDx=0;exitDy=0;entryX=0.5;entryY=1;entryDx=0;entryDy=0;" parent="1" source="kZJSMgrCVQplBnDcgvXw-113" target="_j-Ffw_kFz6ru1a1oyS1-3" edge="1">
          <mxGeometry width="50" height="50" relative="1" as="geometry">
            <mxPoint x="2330" y="140" as="sourcePoint" />
            <mxPoint x="2340" y="70" as="targetPoint" />
          </mxGeometry>
        </mxCell>
        <mxCell id="_j-Ffw_kFz6ru1a1oyS1-3" value="&lt;u&gt;Id_pedido&lt;/u&gt;" style="ellipse;whiteSpace=wrap;html=1;" parent="1" vertex="1">
          <mxGeometry x="2240" width="100" height="50" as="geometry" />
        </mxCell>
        <mxCell id="_j-Ffw_kFz6ru1a1oyS1-4" value="" style="endArrow=none;html=1;rounded=0;exitX=0.75;exitY=0;exitDx=0;exitDy=0;entryX=0.5;entryY=1;entryDx=0;entryDy=0;" parent="1" source="kZJSMgrCVQplBnDcgvXw-113" target="_j-Ffw_kFz6ru1a1oyS1-5" edge="1">
          <mxGeometry width="50" height="50" relative="1" as="geometry">
            <mxPoint x="2450" y="210" as="sourcePoint" />
            <mxPoint x="2490" y="80" as="targetPoint" />
            <Array as="points">
              <mxPoint x="2320" y="100" />
              <mxPoint x="2400" y="100" />
            </Array>
          </mxGeometry>
        </mxCell>
        <mxCell id="_j-Ffw_kFz6ru1a1oyS1-5" value="Id_cliente" style="ellipse;whiteSpace=wrap;html=1;" parent="1" vertex="1">
          <mxGeometry x="2350" width="100" height="50" as="geometry" />
        </mxCell>
        <mxCell id="_j-Ffw_kFz6ru1a1oyS1-6" value="" style="endArrow=none;html=1;rounded=0;exitX=0.75;exitY=1;exitDx=0;exitDy=0;entryX=0.5;entryY=0;entryDx=0;entryDy=0;" parent="1" source="kZJSMgrCVQplBnDcgvXw-113" target="_j-Ffw_kFz6ru1a1oyS1-7" edge="1">
          <mxGeometry width="50" height="50" relative="1" as="geometry">
            <mxPoint x="2360.0000000000005" y="254.29000000000002" as="sourcePoint" />
            <mxPoint x="2480" y="320" as="targetPoint" />
            <Array as="points">
              <mxPoint x="2320" y="260" />
              <mxPoint x="2400" y="260" />
            </Array>
          </mxGeometry>
        </mxCell>
        <mxCell id="_j-Ffw_kFz6ru1a1oyS1-7" value="Estado_pedido" style="ellipse;whiteSpace=wrap;html=1;" parent="1" vertex="1">
          <mxGeometry x="2350" y="320" width="100" height="50" as="geometry" />
        </mxCell>
        <mxCell id="_j-Ffw_kFz6ru1a1oyS1-8" value="" style="endArrow=none;html=1;rounded=0;exitX=0;exitY=0.5;exitDx=0;exitDy=0;entryX=1;entryY=0.5;entryDx=0;entryDy=0;" parent="1" source="_j-Ffw_kFz6ru1a1oyS1-9" target="kZJSMgrCVQplBnDcgvXw-113" edge="1">
          <mxGeometry width="50" height="50" relative="1" as="geometry">
            <mxPoint x="2340" y="320" as="sourcePoint" />
            <mxPoint x="2390" y="140" as="targetPoint" />
          </mxGeometry>
        </mxCell>
        <mxCell id="_j-Ffw_kFz6ru1a1oyS1-9" value="Fecha_registro" style="ellipse;whiteSpace=wrap;html=1;" parent="1" vertex="1">
          <mxGeometry x="2381" y="155" width="100" height="50" as="geometry" />
        </mxCell>
        <mxCell id="_j-Ffw_kFz6ru1a1oyS1-10" value="" style="endArrow=none;html=1;rounded=0;entryX=0.25;entryY=1;entryDx=0;entryDy=0;exitX=0.5;exitY=0;exitDx=0;exitDy=0;" parent="1" source="_j-Ffw_kFz6ru1a1oyS1-11" target="kZJSMgrCVQplBnDcgvXw-113" edge="1">
          <mxGeometry width="50" height="50" relative="1" as="geometry">
            <mxPoint x="2200" y="330" as="sourcePoint" />
            <mxPoint x="2240" y="320" as="targetPoint" />
            <Array as="points">
              <mxPoint x="2180" y="260" />
              <mxPoint x="2260" y="260" />
            </Array>
          </mxGeometry>
        </mxCell>
        <mxCell id="_j-Ffw_kFz6ru1a1oyS1-11" value="Direccion_pedido" style="ellipse;whiteSpace=wrap;html=1;" parent="1" vertex="1">
          <mxGeometry x="2130" y="320" width="100" height="50" as="geometry" />
        </mxCell>
        <mxCell id="_j-Ffw_kFz6ru1a1oyS1-12" style="edgeStyle=orthogonalEdgeStyle;rounded=0;orthogonalLoop=1;jettySize=auto;html=1;exitX=0.5;exitY=1;exitDx=0;exitDy=0;" parent="1" source="_j-Ffw_kFz6ru1a1oyS1-11" target="_j-Ffw_kFz6ru1a1oyS1-11" edge="1">
          <mxGeometry relative="1" as="geometry" />
        </mxCell>
        <mxCell id="_j-Ffw_kFz6ru1a1oyS1-13" value="" style="endArrow=none;html=1;rounded=0;entryX=0.5;entryY=1;entryDx=0;entryDy=0;exitX=0.5;exitY=0;exitDx=0;exitDy=0;" parent="1" source="_j-Ffw_kFz6ru1a1oyS1-14" target="kZJSMgrCVQplBnDcgvXw-113" edge="1">
          <mxGeometry width="50" height="50" relative="1" as="geometry">
            <mxPoint x="2290" y="440" as="sourcePoint" />
            <mxPoint x="2360" y="500" as="targetPoint" />
          </mxGeometry>
        </mxCell>
        <mxCell id="_j-Ffw_kFz6ru1a1oyS1-14" value="Pertenece" style="rhombus;whiteSpace=wrap;html=1;" parent="1" vertex="1">
          <mxGeometry x="2227.5" y="440" width="125" height="80" as="geometry" />
        </mxCell>
        <mxCell id="_j-Ffw_kFz6ru1a1oyS1-15" value="" style="endArrow=none;html=1;rounded=0;entryX=0.5;entryY=1;entryDx=0;entryDy=0;exitX=0.5;exitY=0;exitDx=0;exitDy=0;" parent="1" source="_j-Ffw_kFz6ru1a1oyS1-16" target="_j-Ffw_kFz6ru1a1oyS1-14" edge="1">
          <mxGeometry width="50" height="50" relative="1" as="geometry">
            <mxPoint x="2290" y="650" as="sourcePoint" />
            <mxPoint x="2320" y="640" as="targetPoint" />
          </mxGeometry>
        </mxCell>
        <mxCell id="_j-Ffw_kFz6ru1a1oyS1-16" value="Cliente" style="rounded=1;whiteSpace=wrap;html=1;" parent="1" vertex="1">
          <mxGeometry x="2230" y="620" width="120" height="60" as="geometry" />
        </mxCell>
        <mxCell id="_j-Ffw_kFz6ru1a1oyS1-17" value="" style="endArrow=none;html=1;rounded=0;entryX=0.337;entryY=-0.004;entryDx=0;entryDy=0;entryPerimeter=0;exitX=0.5;exitY=1;exitDx=0;exitDy=0;" parent="1" source="_j-Ffw_kFz6ru1a1oyS1-19" target="_j-Ffw_kFz6ru1a1oyS1-16" edge="1">
          <mxGeometry width="50" height="50" relative="1" as="geometry">
            <mxPoint x="2180" y="540" as="sourcePoint" />
            <mxPoint x="2190" y="520" as="targetPoint" />
            <Array as="points">
              <mxPoint x="2180" y="540" />
              <mxPoint x="2270" y="540" />
            </Array>
          </mxGeometry>
        </mxCell>
        <mxCell id="_j-Ffw_kFz6ru1a1oyS1-19" value="&lt;u&gt;Id_cliente&lt;/u&gt;" style="ellipse;whiteSpace=wrap;html=1;" parent="1" vertex="1">
          <mxGeometry x="2127" y="420" width="106" height="50" as="geometry" />
        </mxCell>
        <mxCell id="_j-Ffw_kFz6ru1a1oyS1-22" value="" style="endArrow=none;html=1;rounded=0;entryX=0.15;entryY=-0.022;entryDx=0;entryDy=0;entryPerimeter=0;exitX=0.5;exitY=1;exitDx=0;exitDy=0;" parent="1" source="_j-Ffw_kFz6ru1a1oyS1-23" target="_j-Ffw_kFz6ru1a1oyS1-16" edge="1">
          <mxGeometry width="50" height="50" relative="1" as="geometry">
            <mxPoint x="2110" y="470" as="sourcePoint" />
            <mxPoint x="2120" y="600" as="targetPoint" />
            <Array as="points">
              <mxPoint x="2068" y="560" />
              <mxPoint x="2248" y="560" />
            </Array>
          </mxGeometry>
        </mxCell>
        <mxCell id="_j-Ffw_kFz6ru1a1oyS1-23" value="Nombre_cliente" style="ellipse;whiteSpace=wrap;html=1;" parent="1" vertex="1">
          <mxGeometry x="2015" y="420" width="106" height="50" as="geometry" />
        </mxCell>
        <mxCell id="_j-Ffw_kFz6ru1a1oyS1-24" value="" style="endArrow=none;html=1;rounded=0;entryX=0;entryY=0;entryDx=0;entryDy=0;exitX=0.5;exitY=1;exitDx=0;exitDy=0;" parent="1" source="_j-Ffw_kFz6ru1a1oyS1-25" target="_j-Ffw_kFz6ru1a1oyS1-16" edge="1">
          <mxGeometry width="50" height="50" relative="1" as="geometry">
            <mxPoint x="1960" y="470" as="sourcePoint" />
            <mxPoint x="2190" y="640" as="targetPoint" />
            <Array as="points">
              <mxPoint x="1983" y="620" />
            </Array>
          </mxGeometry>
        </mxCell>
        <mxCell id="_j-Ffw_kFz6ru1a1oyS1-25" value="Apellido_cliente" style="ellipse;whiteSpace=wrap;html=1;" parent="1" vertex="1">
          <mxGeometry x="1930" y="470" width="106" height="50" as="geometry" />
        </mxCell>
        <mxCell id="_j-Ffw_kFz6ru1a1oyS1-26" value="" style="endArrow=none;html=1;rounded=0;entryX=0;entryY=0.5;entryDx=0;entryDy=0;exitX=1;exitY=0.5;exitDx=0;exitDy=0;" parent="1" source="_j-Ffw_kFz6ru1a1oyS1-27" target="_j-Ffw_kFz6ru1a1oyS1-16" edge="1">
          <mxGeometry width="50" height="50" relative="1" as="geometry">
            <mxPoint x="2110" y="650" as="sourcePoint" />
            <mxPoint x="2150" y="700" as="targetPoint" />
          </mxGeometry>
        </mxCell>
        <mxCell id="_j-Ffw_kFz6ru1a1oyS1-27" value="Correo_cliente" style="ellipse;whiteSpace=wrap;html=1;" parent="1" vertex="1">
          <mxGeometry x="1930" y="625" width="106" height="50" as="geometry" />
        </mxCell>
        <mxCell id="_j-Ffw_kFz6ru1a1oyS1-28" value="" style="endArrow=none;html=1;rounded=0;entryX=0;entryY=1;entryDx=0;entryDy=0;exitX=0.5;exitY=0;exitDx=0;exitDy=0;" parent="1" source="_j-Ffw_kFz6ru1a1oyS1-29" target="_j-Ffw_kFz6ru1a1oyS1-16" edge="1">
          <mxGeometry width="50" height="50" relative="1" as="geometry">
            <mxPoint x="1980" y="680" as="sourcePoint" />
            <mxPoint x="2080" y="720" as="targetPoint" />
            <Array as="points">
              <mxPoint x="1983" y="680" />
            </Array>
          </mxGeometry>
        </mxCell>
        <mxCell id="_j-Ffw_kFz6ru1a1oyS1-29" value="Telefono_cliente" style="ellipse;whiteSpace=wrap;html=1;" parent="1" vertex="1">
          <mxGeometry x="1930" y="770" width="106" height="50" as="geometry" />
        </mxCell>
        <mxCell id="_j-Ffw_kFz6ru1a1oyS1-30" value="Fecha_nacimiento" style="ellipse;whiteSpace=wrap;html=1;" parent="1" vertex="1">
          <mxGeometry x="2015" y="812" width="106" height="50" as="geometry" />
        </mxCell>
        <mxCell id="_j-Ffw_kFz6ru1a1oyS1-32" value="" style="endArrow=none;html=1;rounded=0;exitX=0.5;exitY=0;exitDx=0;exitDy=0;entryX=0.168;entryY=1.009;entryDx=0;entryDy=0;entryPerimeter=0;" parent="1" source="_j-Ffw_kFz6ru1a1oyS1-30" target="_j-Ffw_kFz6ru1a1oyS1-16" edge="1">
          <mxGeometry width="50" height="50" relative="1" as="geometry">
            <mxPoint x="2060" y="790" as="sourcePoint" />
            <mxPoint x="2070" y="690" as="targetPoint" />
            <Array as="points">
              <mxPoint x="2068" y="740" />
              <mxPoint x="2250" y="740" />
            </Array>
          </mxGeometry>
        </mxCell>
        <mxCell id="_j-Ffw_kFz6ru1a1oyS1-33" value="" style="endArrow=none;html=1;rounded=0;entryX=0.337;entryY=1.009;entryDx=0;entryDy=0;entryPerimeter=0;exitX=0.5;exitY=0;exitDx=0;exitDy=0;" parent="1" source="_j-Ffw_kFz6ru1a1oyS1-34" target="_j-Ffw_kFz6ru1a1oyS1-16" edge="1">
          <mxGeometry width="50" height="50" relative="1" as="geometry">
            <mxPoint x="2270" y="780" as="sourcePoint" />
            <mxPoint x="2230" y="840" as="targetPoint" />
            <Array as="points">
              <mxPoint x="2183" y="780" />
              <mxPoint x="2270" y="780" />
            </Array>
          </mxGeometry>
        </mxCell>
        <mxCell id="_j-Ffw_kFz6ru1a1oyS1-34" value="Pais_cliente" style="ellipse;whiteSpace=wrap;html=1;" parent="1" vertex="1">
          <mxGeometry x="2130" y="812" width="106" height="50" as="geometry" />
        </mxCell>
        <mxCell id="_j-Ffw_kFz6ru1a1oyS1-35" value="" style="endArrow=none;html=1;rounded=0;entryX=0.5;entryY=1;entryDx=0;entryDy=0;" parent="1" target="_j-Ffw_kFz6ru1a1oyS1-16" edge="1">
          <mxGeometry width="50" height="50" relative="1" as="geometry">
            <mxPoint x="2290" y="810" as="sourcePoint" />
            <mxPoint x="2370" y="830" as="targetPoint" />
          </mxGeometry>
        </mxCell>
        <mxCell id="_j-Ffw_kFz6ru1a1oyS1-36" value="Clave_cliente" style="ellipse;whiteSpace=wrap;html=1;" parent="1" vertex="1">
          <mxGeometry x="2243" y="812" width="106" height="50" as="geometry" />
        </mxCell>
        <mxCell id="_j-Ffw_kFz6ru1a1oyS1-37" value="" style="endArrow=none;html=1;rounded=0;exitX=0.5;exitY=0;exitDx=0;exitDy=0;entryX=0.621;entryY=1.009;entryDx=0;entryDy=0;entryPerimeter=0;" parent="1" source="_j-Ffw_kFz6ru1a1oyS1-38" target="_j-Ffw_kFz6ru1a1oyS1-16" edge="1">
          <mxGeometry width="50" height="50" relative="1" as="geometry">
            <mxPoint x="2410" y="800" as="sourcePoint" />
            <mxPoint x="2340" y="720" as="targetPoint" />
            <Array as="points">
              <mxPoint x="2413" y="780" />
              <mxPoint x="2305" y="780" />
            </Array>
          </mxGeometry>
        </mxCell>
        <mxCell id="_j-Ffw_kFz6ru1a1oyS1-38" value="Estado_cliente" style="ellipse;whiteSpace=wrap;html=1;" parent="1" vertex="1">
          <mxGeometry x="2360" y="812" width="106" height="50" as="geometry" />
        </mxCell>
        <mxCell id="_j-Ffw_kFz6ru1a1oyS1-39" value="" style="endArrow=none;html=1;rounded=0;exitX=1;exitY=0.5;exitDx=0;exitDy=0;entryX=0.5;entryY=1;entryDx=0;entryDy=0;" parent="1" source="_j-Ffw_kFz6ru1a1oyS1-16" target="_j-Ffw_kFz6ru1a1oyS1-40" edge="1">
          <mxGeometry width="50" height="50" relative="1" as="geometry">
            <mxPoint x="2370" y="660" as="sourcePoint" />
            <mxPoint x="2410" y="650" as="targetPoint" />
            <Array as="points">
              <mxPoint x="2413" y="650" />
            </Array>
          </mxGeometry>
        </mxCell>
        <mxCell id="_j-Ffw_kFz6ru1a1oyS1-40" value="Fecha_registro" style="ellipse;whiteSpace=wrap;html=1;" parent="1" vertex="1">
          <mxGeometry x="2360" y="420" width="106" height="50" as="geometry" />
        </mxCell>
        <mxCell id="_j-Ffw_kFz6ru1a1oyS1-41" value="1,N" style="text;html=1;align=center;verticalAlign=middle;resizable=0;points=[];autosize=1;strokeColor=none;fillColor=none;" parent="1" vertex="1">
          <mxGeometry x="300" y="155" width="40" height="30" as="geometry" />
        </mxCell>
        <mxCell id="_j-Ffw_kFz6ru1a1oyS1-42" value="N,1" style="text;html=1;align=center;verticalAlign=middle;resizable=0;points=[];autosize=1;strokeColor=none;fillColor=none;" parent="1" vertex="1">
          <mxGeometry x="480" y="155" width="40" height="30" as="geometry" />
        </mxCell>
        <mxCell id="_j-Ffw_kFz6ru1a1oyS1-43" value="N,1" style="text;html=1;align=center;verticalAlign=middle;resizable=0;points=[];autosize=1;strokeColor=none;fillColor=none;" parent="1" vertex="1">
          <mxGeometry x="650" y="155" width="40" height="30" as="geometry" />
        </mxCell>
        <mxCell id="_j-Ffw_kFz6ru1a1oyS1-44" value="1,N" style="text;html=1;align=center;verticalAlign=middle;resizable=0;points=[];autosize=1;strokeColor=none;fillColor=none;" parent="1" vertex="1">
          <mxGeometry x="1380" y="155" width="40" height="30" as="geometry" />
        </mxCell>
        <mxCell id="_j-Ffw_kFz6ru1a1oyS1-45" value="1" style="text;html=1;align=center;verticalAlign=middle;resizable=0;points=[];autosize=1;strokeColor=none;fillColor=none;" parent="1" vertex="1">
          <mxGeometry x="555" y="595" width="30" height="30" as="geometry" />
        </mxCell>
        <mxCell id="_j-Ffw_kFz6ru1a1oyS1-46" value="N" style="text;html=1;align=center;verticalAlign=middle;resizable=0;points=[];autosize=1;strokeColor=none;fillColor=none;" parent="1" vertex="1">
          <mxGeometry x="575" y="595" width="30" height="30" as="geometry" />
        </mxCell>
        <mxCell id="_j-Ffw_kFz6ru1a1oyS1-47" value="N" style="text;html=1;align=center;verticalAlign=middle;resizable=0;points=[];autosize=1;strokeColor=none;fillColor=none;" parent="1" vertex="1">
          <mxGeometry x="575" y="205" width="30" height="30" as="geometry" />
        </mxCell>
        <mxCell id="_j-Ffw_kFz6ru1a1oyS1-49" value="1" style="text;html=1;align=center;verticalAlign=middle;resizable=0;points=[];autosize=1;strokeColor=none;fillColor=none;" parent="1" vertex="1">
          <mxGeometry x="559" y="205" width="30" height="30" as="geometry" />
        </mxCell>
        <mxCell id="_j-Ffw_kFz6ru1a1oyS1-51" value="1" style="text;html=1;align=center;verticalAlign=middle;resizable=0;points=[];autosize=1;strokeColor=none;fillColor=none;" parent="1" vertex="1">
          <mxGeometry x="1465" y="205" width="30" height="30" as="geometry" />
        </mxCell>
        <mxCell id="_j-Ffw_kFz6ru1a1oyS1-52" value="N" style="text;html=1;align=center;verticalAlign=middle;resizable=0;points=[];autosize=1;strokeColor=none;fillColor=none;" parent="1" vertex="1">
          <mxGeometry x="1487" y="205" width="30" height="30" as="geometry" />
        </mxCell>
        <mxCell id="_j-Ffw_kFz6ru1a1oyS1-53" value="1" style="text;html=1;align=center;verticalAlign=middle;resizable=0;points=[];autosize=1;strokeColor=none;fillColor=none;" parent="1" vertex="1">
          <mxGeometry x="1462" y="590" width="30" height="30" as="geometry" />
        </mxCell>
        <mxCell id="_j-Ffw_kFz6ru1a1oyS1-54" value="N" style="text;html=1;align=center;verticalAlign=middle;resizable=0;points=[];autosize=1;strokeColor=none;fillColor=none;" parent="1" vertex="1">
          <mxGeometry x="1487" y="590" width="30" height="30" as="geometry" />
        </mxCell>
        <mxCell id="_j-Ffw_kFz6ru1a1oyS1-55" value="N,1" style="text;html=1;align=center;verticalAlign=middle;resizable=0;points=[];autosize=1;strokeColor=none;fillColor=none;" parent="1" vertex="1">
          <mxGeometry x="1560" y="155" width="40" height="30" as="geometry" />
        </mxCell>
        <mxCell id="_j-Ffw_kFz6ru1a1oyS1-56" value="1,N" style="text;html=1;align=center;verticalAlign=middle;resizable=0;points=[];autosize=1;strokeColor=none;fillColor=none;" parent="1" vertex="1">
          <mxGeometry x="2187.5" y="155" width="40" height="30" as="geometry" />
        </mxCell>
        <mxCell id="_j-Ffw_kFz6ru1a1oyS1-57" value="1" style="text;html=1;align=center;verticalAlign=middle;resizable=0;points=[];autosize=1;strokeColor=none;fillColor=none;" parent="1" vertex="1">
          <mxGeometry x="2265" y="208" width="30" height="30" as="geometry" />
        </mxCell>
        <mxCell id="_j-Ffw_kFz6ru1a1oyS1-58" value="N" style="text;html=1;align=center;verticalAlign=middle;resizable=0;points=[];autosize=1;strokeColor=none;fillColor=none;" parent="1" vertex="1">
          <mxGeometry x="2285" y="208" width="30" height="30" as="geometry" />
        </mxCell>
        <mxCell id="_j-Ffw_kFz6ru1a1oyS1-59" value="1" style="text;html=1;align=center;verticalAlign=middle;resizable=0;points=[];autosize=1;strokeColor=none;fillColor=none;" parent="1" vertex="1">
          <mxGeometry x="2265" y="598" width="30" height="30" as="geometry" />
        </mxCell>
        <mxCell id="_j-Ffw_kFz6ru1a1oyS1-60" value="N" style="text;html=1;align=center;verticalAlign=middle;resizable=0;points=[];autosize=1;strokeColor=none;fillColor=none;" parent="1" vertex="1">
          <mxGeometry x="2285" y="598" width="30" height="30" as="geometry" />
        </mxCell>
      </root>
    </mxGraphModel>
  </diagram>
</mxfile>
